<svg xmlns="http://www.w3.org/2000/svg" width="384.333" height="351.229" viewBox="0 0 384.333 351.229">
  <g id="candlestick-chart" transform="translate(1.914 -13.072)">
    <path id="Path_1" data-name="Path 1" d="M382.419,351.369v12.5L-1.914,364.3V13.072H9.9l-.337,338.3H382.419ZM75.208,286.806H93.479V241.184h9.556V133.046H93.479V85.736H75.208v47.31H64.061V241.184H75.208v45.623Zm62.02-66.746h15.335V173.592h9.562V65.451h-9.562V18.983l-15.335.426V65.451H124.919V173.6h12.309v46.46Zm61.578,33.8h12.414v-44.77h9.557V100.935h-9.557V52.779H198.806v48.156H186.841v108.15h11.965Zm68.464,19.011H277.7v-45.2h12.091V141.783H277.7V71.789H267.27v69.994H255.332v85.882H267.27Zm92.711-111.94v-.008h0v.008h0v0h0v-.008h0Z" transform="translate(0 0)" fill="#006afa"/>
  </g>
</svg>
