<svg xmlns="http://www.w3.org/2000/svg" width="298.482" height="288.716" viewBox="0 0 298.482 288.716">
  <path id="stats-dots" d="M10.49,278.62H298.482v10.1H0V0H10.49Zm73.458-44.039c-15.456,0-27.983-12.117-27.983-27.067s12.527-27.067,27.983-27.067c.821,0,5.167.045,5.969.108l26.556-48.5a26.341,26.341,0,0,1-4.543-14.779c0-14.95,12.527-27.067,27.983-27.067S167.9,102.332,167.9,117.282a26.291,26.291,0,0,1-4.543,14.779l30.081,48.5c.8-.063,1.623-.108,2.444-.108.625,0,1.241.027,1.847.063l49.66-84.052A26.359,26.359,0,0,1,242.516,81.2c0-14.95,12.527-27.067,27.983-27.067S298.482,66.251,298.482,81.2s-12.527,27.067-27.983,27.067c-.625,0-1.241-.027-1.847-.063l-49.66,84.052a26.338,26.338,0,0,1,4.869,15.257c0,14.95-12.527,27.067-27.983,27.067S167.9,222.464,167.9,207.514a26.29,26.29,0,0,1,4.543-14.779l-30.081-48.5c-.8.063-1.623.108-2.444.108s-1.642-.045-2.444-.108l-30.081,48.5a26.334,26.334,0,0,1,4.543,14.77c0,14.95-12.527,27.067-27.983,27.067Z" fill="#006afa"/>
</svg>
